<svg xmlns="http://www.w3.org/2000/svg" viewBox="0 0 1600 760" fill="none" preserveAspectRatio="none" aria-hidden="true"><g stroke="#fa9d53" stroke-width="1" opacity=".55"><path d="M720 540Q970 180 1300 430"/><path d="M850 580Q1190 240 1470 500"/><path d="M960 650Q980 380 1300 430"/><path d="M1300 430Q1460 300 1550 330"/></g><path d="M720 540Q970 180 1300 430" pathLength="1" data-signal="" stroke="#ffc786" stroke-width="2.5"/><path d="M850 580Q1190 240 1470 500" pathLength="1" data-signal="" stroke="#ffc786" stroke-width="2.5"/><path d="M960 650Q980 380 1300 430" pathLength="1" data-signal="" stroke="#ffc786" stroke-width="2.5"/><circle cx="720" cy="540" r="4" fill="#ffc879" data-pulse=""/><circle cx="1300" cy="430" r="4" fill="#ffc879" data-pulse=""/><circle cx="850" cy="580" r="4" fill="#ffc879" data-pulse=""/><circle cx="1470" cy="500" r="4" fill="#ffc879" data-pulse=""/><circle cx="960" cy="650" r="4" fill="#ffc879" data-pulse=""/><circle cx="1550" cy="330" r="4" fill="#ffc879" data-pulse=""/><g data-orbit="" opacity=".17" stroke="#68beff"><ellipse cx="1240" cy="480" rx="240" ry="95" transform="rotate(-18 1240 480)"/><circle cx="1000" cy="480" r="4" fill="#98d8ff"/></g></svg>
