<svg xmlns="http://www.w3.org/2000/svg" viewBox="0 0 680 720" fill="none" preserveAspectRatio="none" aria-hidden="true"><defs><linearGradient id="indiaBlue" x2="1" y2="1"><stop stop-color="#1b78c6"/><stop offset="1" stop-color="#092d78"/></linearGradient></defs><path d="M266.5,109.6L269.9,111.7L276.1,111.9L276.8,112.4L276.2,114.4L275.2,115.3L275.7,117.1L274.4,117.7L276.0,118.2L279.8,122.5L279.9,123.2L276.5,127.2L275.8,127.3L275.3,126.3L274.2,126.0L273.5,127.2L270.2,128.5L269.5,130.6L266.9,131.1L263.6,128.7L263.0,125.2L262.2,125.2L260.9,126.3L256.2,126.9L257.5,129.6L257.2,130.3L257.6,133.5L258.7,133.9L261.3,137.5L263.1,139.0L261.7,143.0L262.7,145.0L264.6,146.3L262.3,148.3L262.2,148.8L263.5,149.7L263.1,152.5L266.5,153.3L269.4,149.3L270.5,149.8L272.6,152.1L272.9,153.8L275.1,156.5L275.7,158.4L277.2,158.6L279.1,160.1L282.2,159.3L284.3,159.8L285.4,161.1L287.3,162.0L288.4,163.3L290.2,163.1L291.5,164.3L291.2,165.3L290.4,165.6L291.1,167.0L290.7,167.9L292.1,167.8L297.0,169.9L298.6,170.0L301.1,171.4L302.2,172.9L305.9,174.2L306.4,175.1L304.9,175.8L303.9,175.3L303.1,177.1L300.9,179.2L298.2,180.6L296.3,183.5L294.3,184.5L294.0,185.6L294.6,187.6L291.3,191.5L292.1,193.6L292.6,193.7L292.2,195.9L291.4,195.7L291.4,197.5L289.8,197.8L289.1,200.6L287.9,201.8L287.9,203.5L291.7,205.6L293.5,207.8L295.0,207.8L296.6,209.1L296.6,207.2L297.9,206.7L298.0,207.4L299.4,207.8L302.2,210.1L303.9,210.5L304.6,211.6L309.6,213.3L312.1,217.3L311.7,217.5L312.1,218.1L314.0,217.4L315.5,219.3L322.8,223.8L325.1,222.4L326.1,222.5L333.3,227.4L338.6,227.0L340.0,231.1L347.3,232.2L350.2,234.5L351.7,233.4L351.6,232.0L352.2,231.6L356.1,231.9L361.1,234.2L361.6,233.7L360.7,232.4L364.1,232.2L365.4,230.8L366.2,230.7L369.5,233.6L375.5,234.9L376.5,237.1L375.8,240.1L376.2,240.7L378.5,241.4L379.6,241.1L381.6,242.2L382.2,243.4L383.4,243.9L383.5,244.5L386.2,244.4L386.3,245.7L386.8,246.3L388.6,246.8L394.8,244.4L396.6,245.5L396.8,248.5L398.6,249.5L399.0,250.3L402.5,248.5L406.0,249.9L407.7,249.3L416.0,253.4L416.4,252.8L418.0,252.9L419.1,251.7L422.2,250.0L423.5,253.6L425.7,253.5L427.2,254.8L429.4,253.1L432.7,254.2L438.1,252.4L439.3,253.8L440.8,254.3L442.1,252.6L443.9,246.6L443.5,244.2L440.0,239.0L441.3,234.7L441.1,231.1L443.7,225.4L443.8,223.9L442.9,223.6L442.5,222.2L447.9,221.1L449.4,220.1L450.3,220.1L452.0,218.5L456.0,220.5L456.2,222.2L457.0,223.6L456.1,227.8L454.9,230.4L455.5,232.9L457.7,234.8L457.1,235.8L455.5,236.4L454.6,238.2L456.5,239.3L457.0,242.5L458.0,241.7L458.5,243.0L460.2,243.1L461.7,245.0L463.9,245.2L466.4,244.3L468.3,245.5L471.0,245.8L471.5,246.2L471.5,247.3L472.9,247.0L475.4,247.6L475.8,246.9L476.9,247.2L481.4,246.5L482.4,244.8L485.7,243.5L490.3,245.9L492.7,246.1L499.4,245.4L503.8,246.0L506.2,244.0L507.3,244.1L508.1,245.5L511.6,245.4L514.0,244.3L515.0,245.4L515.3,243.8L516.9,244.5L518.7,243.6L518.6,241.4L517.1,238.8L519.0,235.3L517.8,232.1L516.9,231.6L512.1,231.8L510.8,231.5L509.8,230.4L509.2,228.6L510.4,225.2L509.0,224.4L509.0,223.8L511.2,223.8L512.2,224.8L514.0,224.7L514.7,226.3L516.4,226.4L517.1,225.5L518.6,225.6L521.9,223.5L523.2,225.1L523.7,224.2L524.4,224.8L524.9,223.7L525.5,224.4L528.4,223.9L530.4,222.6L531.5,221.0L530.6,219.7L529.6,219.5L530.4,218.0L532.3,216.7L533.3,216.9L536.0,214.9L540.5,213.7L540.7,212.6L540.1,211.8L542.0,210.0L542.6,208.3L545.1,206.9L550.4,206.3L551.5,206.7L553.1,206.2L554.3,206.6L555.3,204.9L555.5,203.3L559.0,201.5L560.5,201.5L562.4,199.6L560.9,198.1L561.2,197.0L562.1,197.0L563.3,195.8L565.6,195.5L567.2,193.6L569.2,194.2L570.4,195.7L570.6,196.7L574.7,196.9L578.7,198.1L579.2,198.9L581.9,199.3L584.2,198.7L584.9,197.2L584.8,195.8L585.4,195.7L585.7,195.0L588.6,195.6L589.2,194.4L589.2,193.1L590.1,192.8L591.4,193.4L593.2,192.7L596.8,192.5L597.4,194.2L598.6,195.1L600.8,194.4L601.1,195.1L600.3,196.4L598.1,197.1L597.4,197.8L597.8,201.3L598.8,201.2L601.1,199.3L602.8,200.2L602.7,200.7L603.5,201.2L605.1,204.0L605.5,206.1L603.7,206.5L603.7,207.4L599.8,212.0L601.1,212.9L604.8,211.5L607.8,211.7L612.6,213.9L614.7,213.0L615.4,213.2L619.4,216.2L618.8,218.8L620.2,220.8L619.6,222.9L618.8,223.2L618.5,222.6L617.5,222.8L610.6,229.0L610.9,232.2L615.2,237.6L615.8,238.7L615.5,239.5L614.0,239.5L610.6,237.8L610.2,237.4L610.4,236.2L608.9,234.5L607.6,233.9L606.5,234.4L605.3,234.0L603.8,235.3L596.8,236.0L594.3,237.4L592.4,240.3L589.8,241.4L588.3,243.5L586.8,243.8L585.9,245.1L584.3,245.2L582.7,247.5L579.9,248.6L578.8,248.2L577.2,249.3L577.0,250.6L575.6,252.1L576.1,253.6L575.7,256.0L576.0,257.5L576.7,257.9L576.6,259.8L577.8,260.9L576.1,262.9L574.9,263.6L575.0,267.4L574.1,267.8L572.2,270.9L571.5,271.0L570.4,272.4L568.3,273.2L567.4,274.4L566.3,278.4L566.8,279.0L568.9,279.7L569.3,282.0L566.8,288.1L565.6,288.7L564.8,290.9L563.7,291.6L561.4,296.3L559.3,303.3L558.3,304.9L558.2,306.1L557.6,306.4L556.7,305.5L554.0,304.5L551.9,304.5L550.2,303.1L548.3,303.0L547.5,303.9L545.3,304.0L543.6,301.6L542.5,301.9L542.3,303.3L543.3,305.1L543.7,308.6L544.8,309.8L543.7,321.1L542.6,323.1L541.7,323.7L539.9,322.6L539.2,323.2L539.9,326.3L538.0,328.5L537.9,330.2L538.6,332.1L538.4,333.9L539.7,336.5L539.8,339.1L538.9,339.7L539.2,340.6L537.0,340.3L537.0,342.1L535.9,343.1L536.1,344.5L534.7,344.1L534.2,345.3L533.4,343.5L530.5,341.3L529.8,344.0L528.4,344.9L527.6,341.8L528.4,341.0L526.8,330.1L525.8,328.7L525.5,326.5L524.2,325.3L523.6,320.3L524.2,318.1L524.0,316.5L522.2,311.3L522.3,309.2L521.6,309.2L521.1,310.5L520.2,308.7L517.7,310.6L515.9,308.9L516.2,313.6L513.8,315.5L512.4,318.2L513.4,322.0L511.7,323.9L510.0,324.3L509.4,325.0L508.2,323.9L507.1,320.0L505.7,318.4L505.0,319.2L505.3,322.5L504.2,321.7L503.3,317.0L503.7,316.5L500.8,310.8L501.5,310.0L500.7,309.0L501.9,308.2L502.5,306.8L502.3,305.1L503.4,303.4L504.7,303.3L505.1,301.1L509.3,301.2L510.2,298.8L511.7,300.2L512.2,299.8L512.2,298.4L513.6,298.6L514.4,300.0L515.0,299.9L515.4,296.2L516.8,296.7L516.4,295.5L518.5,295.5L519.4,294.8L519.5,292.6L520.5,291.7L521.8,287.2L521.6,284.8L522.9,284.8L524.6,285.9L526.5,285.4L526.6,284.1L523.2,281.0L518.0,278.8L512.2,279.1L510.4,280.0L509.0,279.3L506.4,279.7L502.7,278.4L494.7,279.6L490.9,279.0L486.0,279.5L477.2,276.5L475.5,276.7L475.1,274.9L475.8,269.5L474.8,265.8L475.8,263.4L475.0,263.0L475.7,262.4L474.3,261.3L473.6,259.0L472.4,258.6L472.3,257.4L471.6,257.4L471.6,258.6L470.6,259.0L471.4,259.5L470.7,260.2L471.5,260.5L470.5,261.5L470.2,262.8L469.1,262.0L466.2,262.0L462.1,258.9L461.1,256.0L461.1,255.5L461.8,255.2L460.9,254.8L460.6,254.1L458.7,252.9L457.7,254.0L459.5,255.9L460.0,255.8L460.6,256.9L460.2,257.1L459.3,257.3L457.4,256.2L456.4,257.3L455.0,255.9L453.4,256.5L453.0,256.3L454.3,255.2L453.2,253.4L448.5,250.7L448.2,249.2L447.8,249.3L446.7,252.4L447.1,252.7L447.4,252.0L449.5,252.6L450.2,254.7L448.9,254.5L447.1,256.1L446.9,257.5L443.8,259.1L443.3,260.2L443.5,261.3L442.1,263.8L442.3,265.4L443.1,266.6L445.0,266.0L445.6,266.3L448.7,269.1L448.8,270.4L450.8,272.3L453.4,273.0L454.9,272.0L455.4,272.2L456.3,273.1L456.0,274.4L456.8,275.7L459.5,276.7L458.4,277.8L458.4,279.1L456.3,278.5L455.7,279.3L452.8,278.6L451.4,279.1L449.1,278.7L448.8,281.5L446.8,285.2L445.3,285.0L444.5,283.7L442.8,284.3L443.3,285.8L441.6,287.6L441.0,289.9L442.2,290.8L442.7,292.9L449.7,296.7L452.8,297.1L453.3,296.2L454.8,297.3L454.9,298.8L453.6,300.0L453.6,301.5L454.5,302.4L454.1,303.3L454.3,304.7L453.2,305.9L451.7,306.2L451.0,310.4L451.4,311.4L452.3,311.7L454.4,314.2L455.4,313.7L453.8,317.8L454.0,318.6L459.0,319.6L457.0,322.3L456.7,324.3L457.8,326.3L458.7,327.0L458.0,329.2L459.0,332.4L458.4,333.1L459.2,333.6L460.0,338.5L461.3,341.3L460.6,341.6L460.5,342.7L461.0,345.7L460.1,345.9L460.0,346.4L458.7,345.7L458.4,344.7L458.0,345.1L460.1,347.5L460.6,349.9L461.4,351.1L461.4,352.3L460.5,352.0L459.8,352.6L457.7,351.6L457.1,349.2L456.7,350.6L457.1,351.9L456.1,352.2L456.2,350.8L455.5,351.8L455.8,353.3L454.2,353.1L453.9,347.7L454.5,345.1L455.3,344.1L454.2,342.9L455.3,341.7L454.0,342.8L454.6,343.7L453.9,345.6L452.7,345.6L453.2,344.1L452.9,342.2L453.7,340.6L453.3,340.2L451.5,347.5L451.5,349.2L452.6,349.0L452.8,349.6L452.4,350.7L452.0,350.5L451.6,353.6L450.9,353.2L451.1,354.0L450.5,354.2L450.0,353.6L450.8,351.5L450.3,349.8L450.8,348.7L450.1,347.0L450.5,345.7L450.1,345.4L449.4,352.2L448.2,352.7L448.2,350.7L447.4,350.9L447.0,350.2L447.3,351.6L446.6,352.5L446.3,349.3L445.6,348.6L446.5,353.3L445.5,353.6L444.1,351.3L444.6,348.8L443.6,346.7L443.4,345.3L444.9,342.8L444.4,341.0L442.2,340.0L442.1,339.5L440.8,339.5L440.1,338.6L439.5,335.9L438.8,335.7L440.0,339.4L440.8,340.2L443.2,340.7L443.7,341.2L443.8,342.6L442.8,343.7L441.5,344.1L441.6,344.7L440.3,347.4L437.4,350.0L434.9,351.5L428.0,353.5L425.3,353.7L422.7,355.3L419.9,358.3L418.3,361.5L418.5,363.4L420.8,369.1L420.6,369.6L419.1,369.6L421.2,370.2L421.4,371.0L420.3,371.3L421.4,371.8L422.3,371.3L416.7,375.6L416.1,378.1L417.4,377.6L417.5,376.7L417.8,377.1L417.0,378.6L415.6,379.6L416.7,379.2L411.8,381.9L411.2,383.7L409.8,385.3L410.4,385.7L409.9,386.0L407.6,384.3L406.3,384.3L405.2,382.7L405.5,384.2L409.4,386.4L407.4,387.5L394.9,391.3L392.3,392.6L391.7,392.6L391.3,391.8L394.2,390.9L394.0,388.2L391.5,387.8L389.2,389.9L388.2,390.2L385.8,394.0L386.0,394.7L385.1,395.4L385.5,396.4L387.0,395.6L386.9,394.9L387.6,394.9L386.8,394.3L387.8,393.7L387.8,392.8L389.0,393.1L390.6,392.1L390.9,393.0L390.3,393.6L388.6,393.9L389.4,394.4L394.2,392.1L386.6,396.5L380.6,401.8L379.1,403.8L378.1,403.3L377.7,404.2L378.1,404.8L378.9,404.3L378.1,405.7L372.0,413.8L370.3,415.5L368.7,416.1L369.1,416.6L370.6,415.5L366.7,419.2L366.1,420.8L359.6,424.0L356.5,426.0L353.8,428.9L353.4,428.5L353.4,429.6L351.3,432.7L350.5,433.3L349.5,432.8L350.5,433.8L348.8,434.5L349.3,435.3L342.8,439.1L339.3,440.4L334.7,443.3L332.7,445.3L330.4,449.0L330.7,450.3L331.6,450.7L332.5,450.4L332.3,448.4L332.6,449.4L332.0,454.2L331.6,455.6L331.0,455.4L331.5,456.2L326.9,459.0L321.0,461.5L317.6,461.1L317.1,460.5L316.9,460.9L314.4,461.1L314.3,460.3L311.4,461.3L309.3,468.8L306.4,471.3L306.6,472.7L304.7,471.2L304.4,467.5L304.3,468.1L304.0,467.8L304.3,470.3L302.7,474.0L302.6,471.4L302.1,470.6L300.1,470.1L297.8,470.6L294.8,472.3L292.6,474.3L291.3,478.5L288.9,482.5L288.2,486.9L289.3,494.7L290.6,496.9L289.9,497.6L291.0,497.8L290.6,502.3L289.7,504.1L288.1,505.1L289.8,504.7L290.1,508.8L292.0,513.5L291.4,515.7L293.2,520.9L291.9,517.8L289.9,515.0L289.8,517.3L289.0,515.7L288.2,517.3L289.5,519.7L292.3,520.4L293.1,521.5L293.5,521.2L293.9,522.8L293.2,525.6L293.6,525.5L293.6,525.9L292.7,528.6L292.0,534.9L290.7,539.7L289.0,543.2L286.1,546.2L287.3,545.7L284.6,550.2L283.1,555.4L282.5,559.4L283.1,562.5L283.2,561.9L283.7,562.1L283.7,563.4L282.4,563.6L281.0,565.2L282.6,563.9L284.0,564.2L284.4,568.0L284.5,585.8L283.3,586.3L282.5,585.5L280.2,585.1L279.8,585.5L282.6,586.1L282.6,586.6L278.7,585.7L279.6,585.1L279.3,584.8L276.8,585.5L275.7,585.2L273.5,586.7L272.6,588.5L272.9,590.8L273.4,591.2L271.9,592.5L267.7,598.8L266.4,602.7L267.3,604.6L269.5,606.3L272.9,606.6L274.6,606.0L274.8,607.5L276.7,609.2L273.6,607.3L267.8,606.8L261.8,608.7L261.0,609.5L256.8,610.5L253.5,613.2L252.4,615.0L252.0,617.6L252.9,616.9L253.0,617.3L252.1,618.0L251.6,619.6L251.1,619.6L251.6,620.9L251.3,623.1L249.9,625.6L245.1,628.4L244.4,629.4L241.1,630.3L240.4,630.8L240.5,631.4L239.5,631.6L235.6,630.4L229.6,625.5L222.9,616.2L220.9,614.3L222.4,614.0L221.7,614.2L221.5,613.7L222.1,613.1L223.1,613.2L222.7,612.8L223.3,612.4L221.7,612.5L221.2,613.5L221.3,612.6L220.6,613.6L219.3,610.1L219.8,609.0L219.4,609.4L218.4,607.4L219.0,609.5L217.5,605.8L215.0,592.9L216.0,593.4L216.0,593.9L215.4,593.8L215.6,594.4L215.9,594.1L215.9,595.1L216.4,594.4L217.0,598.1L217.1,595.7L216.6,594.7L217.4,595.7L218.1,598.5L217.4,601.8L219.3,602.3L220.1,601.5L218.3,600.8L218.1,595.1L217.4,593.6L215.8,592.3L215.2,589.8L214.6,589.0L214.5,589.5L215.2,592.1L214.0,589.7L213.9,588.4L215.1,587.0L214.2,586.4L214.4,587.8L213.8,587.9L213.4,587.4L211.5,581.3L209.0,576.1L209.4,575.5L208.5,574.4L205.4,563.6L204.1,561.7L203.0,561.3L201.0,556.3L197.5,552.7L197.2,552.0L199.0,552.3L198.9,551.2L198.0,551.7L197.1,551.3L196.7,550.4L197.6,550.4L197.2,549.8L196.4,550.4L196.6,551.3L195.0,550.2L193.8,546.4L194.0,545.5L193.3,546.1L188.0,533.6L190.2,532.5L187.8,532.9L186.9,528.9L187.2,528.3L185.4,522.2L185.2,520.4L185.7,521.5L184.9,517.0L186.2,516.5L185.3,515.3L184.8,516.4L183.9,512.8L181.6,508.8L181.1,505.7L180.4,504.4L180.5,504.0L181.9,504.2L180.1,503.2L178.9,499.0L179.6,499.9L180.3,499.6L179.0,497.6L178.6,498.6L177.9,498.5L177.8,497.3L178.6,496.8L177.4,496.8L177.0,494.6L176.4,494.2L175.9,494.6L174.0,493.0L174.4,492.3L175.2,492.4L176.7,491.3L176.1,490.8L174.3,492.0L172.8,490.4L172.7,488.9L171.5,487.5L170.5,487.2L171.4,485.6L170.1,481.7L168.0,480.4L170.2,480.4L171.5,481.1L170.8,480.2L168.2,479.5L168.6,478.5L169.7,478.2L169.6,477.7L167.7,478.5L167.1,477.0L167.5,475.8L169.0,475.2L166.7,475.9L166.1,474.3L166.4,473.9L165.4,473.6L164.6,470.6L162.4,468.3L162.9,467.7L161.5,466.7L162.3,464.3L161.6,464.7L161.5,465.8L161.3,463.7L159.8,460.6L160.3,459.9L159.5,459.3L158.8,457.2L158.9,456.6L160.2,457.5L159.7,457.1L160.1,456.6L159.0,455.8L160.1,455.6L159.0,454.9L159.1,453.9L158.5,452.9L158.8,451.4L158.1,450.1L158.5,447.9L157.8,446.9L158.3,445.9L156.6,441.2L157.7,441.7L156.2,439.5L156.4,437.7L155.4,436.1L156.8,435.4L155.3,434.6L155.3,432.4L153.3,427.9L153.6,427.1L153.1,426.7L153.8,425.5L153.1,426.1L152.7,425.5L152.3,422.9L151.6,422.3L151.8,421.0L152.4,421.9L153.9,422.2L154.1,423.1L154.3,421.3L152.9,421.1L152.5,420.2L151.3,419.5L150.8,417.8L151.2,416.1L151.9,415.9L153.1,417.6L153.3,417.2L152.2,415.5L151.2,415.4L150.2,412.9L150.2,410.7L151.6,409.9L152.9,411.8L153.3,410.1L152.6,409.8L152.6,409.0L151.9,409.2L151.0,408.5L151.8,407.4L152.5,407.4L152.7,407.0L152.1,406.9L154.1,406.0L152.7,406.3L152.3,402.9L151.7,403.9L151.7,405.6L150.9,406.5L150.8,405.8L150.5,406.1L149.5,408.3L149.2,407.2L148.6,407.4L149.6,405.2L149.6,402.8L148.8,403.0L149.7,401.1L148.7,402.1L148.8,399.8L152.4,400.2L153.5,402.1L153.9,401.8L152.7,400.1L151.0,400.0L149.8,399.1L149.2,399.5L148.4,398.5L148.3,396.4L150.6,395.3L149.1,395.4L148.0,394.3L148.3,395.6L147.6,395.2L147.0,391.4L147.7,391.7L147.8,390.2L146.8,390.9L146.2,388.7L148.3,381.2L148.1,379.9L150.8,374.7L151.0,370.6L151.9,370.0L151.4,368.7L150.8,369.0L151.1,367.8L149.8,368.4L150.4,367.2L149.8,366.5L150.8,365.4L149.8,365.6L148.6,364.6L150.1,364.1L149.3,362.4L148.0,362.5L147.2,363.5L147.5,361.7L146.8,361.9L146.7,363.0L146.0,363.3L145.6,362.9L147.9,361.0L146.2,359.4L145.6,359.8L145.0,358.0L146.2,357.6L144.6,357.1L147.8,355.5L148.1,355.7L147.9,355.1L145.0,356.5L145.7,355.0L148.6,353.1L149.6,351.8L150.8,351.9L155.5,349.4L151.6,350.9L144.3,351.3L143.9,350.7L144.7,347.5L145.6,346.0L147.0,345.7L147.9,344.6L145.7,345.1L144.2,346.3L143.4,344.9L144.1,341.5L144.8,340.4L146.0,340.1L148.1,341.1L149.4,339.6L151.4,339.8L151.4,338.8L149.5,338.8L148.3,339.4L144.8,338.5L142.7,339.6L142.7,339.0L141.3,339.2L141.4,336.9L140.7,337.4L140.1,339.1L139.1,339.1L138.4,338.2L137.8,338.2L137.7,338.8L136.6,338.7L137.4,339.3L138.4,338.5L138.4,339.5L139.7,339.7L139.7,342.8L138.7,344.2L137.6,344.3L137.1,344.9L135.6,344.3L136.2,344.8L135.3,344.9L135.7,345.6L134.3,345.7L136.8,346.0L137.0,347.7L134.9,346.5L134.7,346.9L135.8,347.8L133.9,347.4L133.7,348.6L134.2,348.5L134.2,349.1L137.0,348.7L138.1,350.6L139.0,350.8L139.5,352.1L138.0,355.9L135.8,358.6L135.8,360.8L129.2,364.4L128.4,364.4L125.8,365.9L125.1,366.1L125.5,365.5L125.2,365.6L123.5,367.4L117.3,369.9L114.8,370.4L114.3,371.0L109.6,370.9L101.9,366.6L96.5,361.9L92.5,357.0L91.8,355.5L84.5,348.9L83.8,347.0L82.7,347.3L80.1,344.9L76.1,340.2L75.2,338.4L75.9,335.8L77.7,334.5L77.8,335.0L77.2,335.5L77.6,336.2L80.1,335.9L79.5,337.7L80.3,338.8L85.5,337.4L86.3,336.4L86.1,335.2L86.8,335.1L86.9,336.7L88.1,337.1L89.1,336.0L89.7,336.1L90.3,334.5L91.5,335.8L94.9,333.3L98.9,332.9L102.6,325.8L105.1,324.2L105.6,322.8L105.1,321.7L104.4,321.1L103.1,322.4L103.0,325.0L101.3,325.1L99.9,323.8L99.7,324.7L98.6,324.9L97.9,323.9L97.5,324.7L98.0,325.3L92.2,326.7L90.0,329.0L87.5,328.7L80.1,326.9L73.7,323.4L69.6,320.6L68.6,319.2L69.0,318.3L67.7,318.5L67.8,317.3L68.7,317.1L67.1,316.2L67.4,315.1L66.2,315.5L66.0,314.6L65.2,314.6L66.4,313.2L65.5,312.5L65.6,313.4L65.0,313.6L64.9,311.0L66.5,311.1L66.1,310.2L67.3,309.8L69.9,307.0L71.0,306.9L72.8,305.7L69.2,306.6L68.6,307.7L65.3,309.1L63.4,311.7L59.8,311.2L60.9,310.2L61.5,310.5L62.4,310.1L62.5,309.7L61.7,309.9L61.1,309.5L60.9,307.8L60.2,308.2L60.6,306.4L62.1,305.4L62.1,304.5L62.8,305.0L63.6,303.8L63.9,304.4L65.4,303.9L71.0,303.9L71.0,297.2L71.4,296.4L72.4,296.4L73.2,298.3L74.4,296.6L75.5,297.9L77.6,297.2L79.5,298.0L81.6,297.3L87.1,297.5L90.0,299.7L94.9,299.8L96.4,299.0L97.3,297.0L103.4,294.9L106.2,294.5L106.5,294.9L105.9,295.7L106.3,297.6L107.4,298.2L109.9,298.4L111.8,297.7L111.6,296.9L113.0,295.7L114.5,295.8L116.2,294.7L116.0,294.2L114.2,293.6L113.7,291.1L114.2,290.0L115.8,289.1L113.0,283.7L111.7,279.2L109.5,277.1L108.0,274.4L108.0,268.7L106.8,268.0L102.3,268.7L100.2,268.0L96.7,262.4L96.9,259.9L98.2,257.5L98.5,251.0L96.5,249.8L91.9,250.0L88.9,248.0L85.9,246.8L85.2,245.3L86.5,238.7L95.3,229.6L97.4,224.6L102.0,220.5L104.2,219.9L105.7,220.4L107.6,222.1L107.7,223.7L109.1,226.1L111.4,226.9L119.0,223.9L125.4,223.4L131.4,221.5L132.0,217.9L136.7,213.4L138.7,207.4L140.6,204.9L151.6,199.1L157.4,189.0L160.1,181.0L163.7,179.2L167.2,178.5L171.1,175.6L170.9,174.1L170.1,172.7L169.1,172.2L169.3,171.8L173.2,168.5L173.4,166.9L175.3,165.8L178.3,161.0L179.8,161.1L180.6,160.0L182.1,159.6L183.3,158.0L184.8,157.1L184.0,156.5L182.4,156.5L181.9,155.2L182.3,152.6L184.0,149.4L181.5,144.2L182.7,141.8L185.0,140.2L185.5,139.3L187.2,139.4L188.0,137.7L190.5,137.6L191.9,136.9L192.1,136.2L194.7,136.4L195.1,135.6L197.0,135.2L198.2,132.8L195.7,130.4L191.8,128.6L189.5,129.0L188.2,128.4L185.4,128.5L184.2,126.1L185.4,121.5L185.0,120.9L183.1,122.7L181.7,122.8L180.6,122.0L178.8,122.4L178.2,121.3L171.8,118.2L171.0,117.2L168.4,117.3L164.9,115.0L165.5,113.8L164.8,112.8L164.1,112.9L164.5,110.7L164.0,109.6L165.0,108.3L164.8,106.9L165.1,106.5L164.0,104.5L164.5,103.0L163.8,101.0L164.1,98.8L162.9,96.8L162.1,91.4L160.6,89.2L161.3,86.2L161.9,85.2L164.3,84.9L164.9,85.4L165.6,83.9L165.4,83.0L167.2,80.8L169.9,80.3L172.5,78.8L174.1,76.2L173.4,75.2L174.5,74.2L174.1,73.5L168.5,71.6L166.8,71.9L166.2,69.0L166.9,67.8L168.0,67.1L167.8,65.6L160.8,65.1L160.3,64.2L158.9,64.0L155.4,61.4L155.4,59.9L155.9,59.4L154.7,58.3L153.8,58.7L150.5,58.3L149.0,59.1L143.7,57.7L145.1,55.4L143.9,53.7L145.0,50.4L147.1,50.2L150.6,47.8L151.0,46.2L152.7,46.0L152.6,45.3L154.0,44.6L154.8,43.3L154.5,41.3L156.4,40.6L158.6,40.9L160.9,40.2L166.0,41.2L166.8,40.8L169.8,41.1L170.0,39.9L166.8,38.2L166.6,37.3L169.0,37.5L172.8,38.9L174.0,38.6L174.6,37.2L176.7,37.1L180.5,35.1L182.4,35.9L182.5,34.7L184.8,34.0L188.0,35.2L188.9,37.0L189.9,35.7L193.2,35.2L198.1,36.9L198.9,37.9L199.6,40.8L200.8,40.9L202.3,39.9L205.3,40.8L208.1,43.0L210.1,46.6L213.4,47.0L215.1,49.1L218.0,49.4L218.7,50.8L219.5,51.2L223.3,51.8L224.3,52.4L225.4,54.9L225.4,57.6L226.6,58.6L229.8,59.5L231.4,61.1L233.7,61.7L236.4,61.5L237.8,63.2L238.7,62.9L239.4,64.4L239.6,66.5L242.3,66.9L244.3,66.1L246.7,66.4L248.0,64.8L250.8,65.3L252.0,63.5L254.1,62.0L259.3,60.3L261.6,58.8L267.5,58.1L270.6,59.1L271.8,58.1L271.6,57.0L273.6,56.2L275.7,56.5L276.9,58.1L282.2,59.8L284.8,60.2L285.6,59.4L287.3,59.1L289.3,62.3L292.8,63.8L293.5,66.5L292.7,67.2L292.2,70.8L290.8,73.3L290.3,77.4L288.7,79.7L288.8,81.0L288.2,83.1L287.1,83.6L284.7,83.4L283.6,85.3L281.5,86.3L282.2,87.4L281.7,88.4L278.1,88.2L277.8,88.9L278.6,92.7L277.4,93.2L277.5,94.8L275.8,96.5L270.6,96.4L269.4,97.1L266.8,96.8L266.2,97.3L266.1,98.9L267.9,102.1L268.3,104.5L266.0,104.8L266.5,109.6Z M305.8,472.4L306.1,473.1L305.3,473.5L303.9,472.0L304.2,471.3L305.8,472.4Z M165.4,590.1L165.1,590.7L165.4,590.1Z M146.2,580.2L145.8,580.5L146.2,580.2Z M153.2,560.9L153.1,561.4L153.2,560.9Z M147.5,557.0L147.2,557.1L147.5,557.0Z M553.3,545.1L552.9,545.0L553.3,545.1Z M561.1,520.9L561.0,521.4L561.1,520.9Z M554.2,653.3L553.8,657.7L553.0,657.8L552.5,659.0L552.1,658.8L551.2,655.3L550.0,653.6L549.0,653.5L549.0,651.3L549.5,650.0L552.1,648.8L553.1,649.6L554.2,653.3Z M550.5,646.1L550.5,646.8L548.9,648.4L548.4,648.4L547.9,647.3L549.9,644.6L550.5,646.1Z M544.8,634.1L545.2,635.8L544.6,635.4L543.3,635.5L543.2,634.7L542.4,634.2L542.7,633.1L543.6,632.8L544.8,634.1Z M547.4,633.1L547.5,634.7L546.3,633.5L547.0,632.7L547.4,633.1Z M546.7,632.4L545.8,633.3L545.7,632.3L546.4,631.8L545.5,631.6L545.1,629.9L546.2,628.5L546.7,628.7L546.2,630.1L546.7,632.4Z M154.4,626.6L154.2,627.6L153.4,627.9L154.4,626.6Z M539.1,628.2L539.7,628.9L538.5,628.6L537.8,627.6L538.1,625.8L539.1,628.2Z M548.2,621.8L548.6,623.1L548.0,624.1L548.2,621.8Z M532.9,607.7L533.3,609.5L532.7,610.2L531.4,609.8L530.9,608.4L531.7,607.1L532.9,607.7Z M528.6,576.0L528.8,577.9L527.7,579.1L527.7,579.7L528.3,579.9L527.6,581.1L527.2,581.4L525.4,580.6L524.7,581.0L525.3,578.9L524.6,578.0L524.6,575.7L525.3,575.4L525.6,574.3L527.5,573.4L528.6,576.0Z M530.3,562.8L530.8,563.3L530.2,563.7L528.7,563.5L529.6,562.4L529.5,560.8L530.7,561.9L530.3,562.8Z M522.5,559.1L522.8,560.1L522.2,560.4L521.5,558.9L522.5,559.1Z M537.3,551.4L537.8,552.7L537.5,552.8L535.5,550.9L536.1,549.9L536.8,549.9L537.3,551.4Z M538.5,546.7L538.3,548.8L537.7,547.5L537.9,546.5L538.5,546.7Z M531.4,530.6L531.2,532.7L530.4,534.2L530.4,530.8L530.9,530.3L531.4,530.6Z M537.5,524.2L538.0,524.7L537.2,528.7L536.1,529.4L535.8,528.3L535.3,528.6L535.6,530.6L535.3,531.0L534.7,530.4L534.1,531.7L535.1,531.8L535.8,532.8L536.3,539.9L535.3,542.0L534.5,541.3L534.6,541.7L533.6,541.7L534.9,543.7L534.2,544.2L534.5,546.4L533.2,547.8L533.3,548.2L531.9,549.1L532.5,549.9L531.5,551.0L531.5,553.2L532.0,551.9L532.7,552.7L531.9,556.7L530.5,557.9L530.7,558.7L531.5,557.2L531.9,557.6L531.1,561.1L529.3,559.0L529.8,558.1L529.2,557.8L528.9,556.4L528.1,556.3L528.2,554.2L527.4,553.6L528.3,552.0L529.2,553.4L529.6,547.8L530.4,546.1L531.2,546.0L531.3,547.1L532.5,546.4L531.9,545.2L532.5,544.5L531.4,544.1L531.1,543.2L531.2,538.3L532.4,536.9L531.7,536.4L531.5,534.0L532.7,533.0L533.3,530.0L532.8,529.6L533.7,527.0L533.3,526.4L533.9,525.2L533.6,522.9L535.6,518.8L537.3,518.2L538.0,521.8L536.6,523.2L536.4,522.7L536.1,522.9L537.5,524.2Z M537.3,516.3L537.5,516.8L536.3,516.3L537.3,516.3Z M457.4,352.8L458.1,353.4L458.0,354.1L456.7,354.1L456.8,352.4L457.4,352.8Z M441.6,350.5L442.9,347.3L443.4,347.1L443.8,349.3L443.8,350.5L443.2,350.9L443.3,352.1L441.6,351.8L441.6,350.5Z M452.8,346.1L453.5,346.3L453.0,348.8L451.8,348.0L452.8,346.1Z M442.2,347.5L442.1,346.4L442.9,345.6L443.0,346.7L442.2,347.5Z M137.1,575.2L137.6,573.8L137.1,575.2Z M148.9,565.9L148.7,567.4L148.9,565.9Z" fill="url(#indiaBlue)" stroke="#65c1ff" stroke-width="1.5"/></svg>
